<svg width="35" height="35" viewBox="0 0 35 35" fill="none" xmlns="http://www.w3.org/2000/svg">
<path d="M24.7914 2.91641C26.7236 2.92218 28.5751 3.69231 29.9414 5.05861C31.3077 6.42491 32.0778 8.27636 32.0836 10.2086V24.7914C32.0778 26.7236 31.3077 28.5751 29.9414 29.9414C28.5751 31.3077 26.7236 32.0778 24.7914 32.0836H10.2086C8.27636 32.0778 6.42491 31.3077 5.05861 29.9414C3.69231 28.5751 2.92218 26.7236 2.91641 24.7914V10.2086C2.92218 8.27636 3.69231 6.42491 5.05861 5.05861C6.42491 3.69231 8.27636 2.92218 10.2086 2.91641H24.7914ZM24.7914 0H10.2086C4.59375 0 0 4.59375 0 10.2086V24.7914C0 30.4062 4.59375 35 10.2086 35H24.7914C30.4062 35 35 30.4062 35 24.7914V10.2086C35 4.59375 30.4062 0 24.7914 0Z" fill="white"/>
<path d="M26.8571 10.2858C26.4333 10.2858 26.019 10.1601 25.6666 9.92463C25.3142 9.68916 25.0395 9.35449 24.8773 8.96293C24.7152 8.57137 24.6727 8.14051 24.7554 7.72483C24.8381 7.30915 25.0422 6.92732 25.3419 6.62764C25.6416 6.32795 26.0234 6.12386 26.4391 6.04118C26.8547 5.95849 27.2856 6.00093 27.6772 6.16312C28.0687 6.32531 28.4034 6.59997 28.6389 6.95236C28.8743 7.30476 29 7.71906 29 8.14288C29.0006 8.42446 28.9456 8.70339 28.8381 8.96365C28.7306 9.22391 28.5728 9.46038 28.3737 9.65948C28.1746 9.85859 27.9381 10.0164 27.6779 10.1239C27.4176 10.2314 27.1387 10.2864 26.8571 10.2858ZM17.5715 11.7138C18.7018 11.7138 19.8066 12.049 20.7464 12.6769C21.6862 13.3049 22.4186 14.1974 22.8512 15.2416C23.2837 16.2858 23.3968 17.4348 23.1763 18.5433C22.9558 19.6518 22.4116 20.6701 21.6124 21.4693C20.8132 22.2685 19.7949 22.8128 18.6864 23.0333C17.5779 23.2538 16.4289 23.1406 15.3847 22.7081C14.3404 22.2755 13.4479 21.5431 12.82 20.6033C12.1921 19.6636 11.8569 18.5587 11.8569 17.4285C11.8585 15.9133 12.4611 14.4608 13.5325 13.3894C14.6038 12.3181 16.0564 11.7155 17.5715 11.7138ZM17.5715 8.85692C15.8762 8.85692 14.219 9.35964 12.8094 10.3015C11.3999 11.2433 10.3012 12.582 9.65247 14.1483C9.00371 15.7145 8.83397 17.438 9.1647 19.1007C9.49544 20.7634 10.3118 22.2907 11.5105 23.4894C12.7093 24.6882 14.2366 25.5046 15.8993 25.8353C17.562 26.166 19.2855 25.9963 20.8517 25.3475C22.418 24.6988 23.7567 23.6001 24.6985 22.1905C25.6404 20.781 26.1431 19.1237 26.1431 17.4285C26.1431 15.1551 25.24 12.9749 23.6325 11.3675C22.0251 9.75999 19.8449 8.85692 17.5715 8.85692Z" fill="white"/>
</svg>
